<?xml version="1.0" standalone="no"?>
<!DOCTYPE svg PUBLIC "-//W3C//DTD SVG 20010904//EN"
 "http://www.w3.org/TR/2001/REC-SVG-20010904/DTD/svg10.dtd">
<svg version="1.0" xmlns="http://www.w3.org/2000/svg"
 width="1024.000000pt" height="1024.000000pt" viewBox="0 0 1024.000000 1024.000000"
 preserveAspectRatio="xMidYMid meet">

<g transform="translate(0.000000,1024.000000) scale(0.100000,-0.100000)"
fill="#000000" stroke="none">
<path d="M5240 7226 c0 -2 8 -10 18 -17 15 -13 16 -12 3 4 -13 16 -21 21 -21
13z"/>
<path d="M5280 7187 c0 -2 15 -16 33 -33 l32 -29 -29 33 c-28 30 -36 37 -36
29z"/>
<path d="M3026 7070 l-81 -80 81 -80 c45 -44 85 -80 90 -80 5 1 47 37 94 81
l85 80 -85 79 c-47 44 -89 80 -94 80 -5 0 -45 -36 -90 -80z"/>
<path d="M4029 7103 l-34 -38 38 34 c20 19 37 36 37 38 0 8 -8 0 -41 -34z"/>
<path d="M5394 7072 c17 -18 34 -32 38 -32 10 0 -17 28 -47 50 -11 8 -7 0 9
-18z"/>
<path d="M5741 7044 c0 -11 3 -14 6 -6 3 7 2 16 -1 19 -3 4 -6 -2 -5 -13z"/>
<path d="M3914 6998 l-29 -33 33 29 c30 28 37 36 29 36 -2 0 -16 -15 -33 -32z"/>
<path d="M5132 6967 c20 -20 33 -39 30 -43 -4 -4 -1 -4 6 0 17 10 17 9 -30 45
l-43 33 37 -35z"/>
<path d="M5970 6987 c0 -2 15 -16 33 -33 l32 -29 -29 33 c-28 30 -36 37 -36
29z"/>
<path d="M6060 6895 c13 -14 26 -25 28 -25 3 0 -5 11 -18 25 -13 14 -26 25
-28 25 -3 0 5 -11 18 -25z"/>
<path d="M5099 6873 c-24 -21 -111 -99 -194 -173 -82 -74 -173 -155 -201 -180
-28 -25 -119 -107 -203 -183 -83 -76 -155 -135 -160 -133 -5 3 -14 -1 -21 -9
-7 -8 -9 -15 -4 -15 4 0 -5 -13 -21 -30 -36 -38 -57 -40 -24 -2 13 15 -7 -2
-44 -38 -37 -35 -67 -67 -67 -69 0 -3 21 15 48 39 26 25 16 12 -23 -28 -68
-71 -117 -103 -60 -39 17 17 2 5 -32 -27 -35 -33 -60 -62 -58 -65 7 -6 -56
-71 -69 -71 -5 0 1 12 15 28 l24 27 -27 -24 c-16 -14 -26 -27 -23 -30 6 -6
-86 -101 -98 -101 -4 0 -5 6 -1 13 4 6 -5 1 -19 -12 -15 -14 -25 -27 -22 -30
7 -6 -76 -91 -88 -91 -5 0 -3 8 4 18 11 14 10 14 -8 -2 -13 -10 -20 -22 -18
-27 3 -4 1 -10 -5 -14 -6 -4 -10 -171 -10 -484 l0 -479 53 -53 c28 -29 38 -41
21 -25 -17 15 -40 29 -50 30 -11 2 -19 9 -19 17 -1 8 -7 13 -14 11 -7 -1 -10
2 -6 8 3 6 -4 10 -18 10 -14 0 -24 -6 -24 -15 0 -8 4 -15 9 -15 4 0 8 -6 8
-14 0 -7 7 -19 15 -26 9 -7 14 -19 11 -27 -3 -8 -2 -12 2 -10 4 3 30 -15 57
-40 28 -25 43 -42 35 -37 -8 4 1 -9 19 -29 41 -43 56 -50 20 -9 -23 26 -23 26
8 -2 18 -16 31 -31 28 -34 -5 -6 57 -58 66 -55 4 1 13 -5 21 -15 12 -16 11
-16 -7 -2 -15 11 -14 7 4 -13 26 -29 37 -35 25 -14 -3 6 18 -13 47 -44 93 -96
92 -96 133 -63 l36 29 -48 50 c-42 44 -43 46 -7 15 22 -20 69 -60 105 -90 36
-29 69 -57 74 -62 6 -4 1 -17 -12 -31 l-22 -23 67 -49 c65 -48 119 -95 396
-342 l137 -123 152 0 c83 0 149 2 146 5 -2 3 -16 6 -31 7 -14 1 -45 20 -69 43
-24 22 -40 37 -35 33 5 -3 16 -4 25 0 11 4 14 1 9 -10 -8 -22 21 -32 39 -13 9
8 12 15 7 15 -19 0 125 64 151 67 17 2 32 7 35 11 7 8 10 9 76 17 26 3 51 7
55 10 8 5 117 17 165 19 19 1 29 -4 27 -11 -3 -18 3 -16 19 4 12 14 12 16 0 8
-10 -5 -12 -4 -7 4 4 6 11 9 16 6 4 -2 19 4 32 15 14 11 27 17 30 15 2 -3 22
13 43 35 l38 39 -264 1 c-144 0 -265 3 -268 5 -2 3 117 6 265 7 148 0 247 4
219 8 -34 5 -40 7 -20 8 27 2 32 7 45 50 8 26 13 52 11 57 -2 6 -4 53 -6 105
-1 52 -5 102 -9 111 -16 37 20 109 55 109 25 0 70 36 85 69 14 30 16 63 10
260 -9 328 -10 557 -2 569 4 7 26 5 69 -7 105 -30 167 0 167 79 0 58 -17 64
-75 24 -27 -18 -54 -34 -58 -34 -4 0 -101 73 -215 163 -114 90 -297 233 -407
319 l-199 156 -96 -74 c-52 -41 -237 -186 -410 -323 l-315 -248 -58 39 -58 40
83 64 c46 36 180 141 298 234 118 93 292 229 386 303 l171 134 304 -239 c343
-271 388 -304 401 -300 5 1 7 -2 3 -7 -7 -12 29 -33 40 -23 3 4 5 2 3 -4 -2
-7 33 -40 77 -74 83 -65 114 -87 83 -59 -9 9 -15 19 -12 21 2 3 -17 22 -43 44
-27 21 -80 70 -119 108 -39 39 -85 82 -102 96 -150 124 -372 347 -397 399 -11
22 -22 41 -25 41 -3 0 -5 15 -5 33 1 17 -4 35 -9 39 -6 4 -5 13 3 22 8 9 11
16 7 16 -3 0 1 16 9 36 17 42 19 56 4 34 -8 -12 -9 -10 -7 10 1 14 -1 31 -5
38 -5 7 -3 12 5 12 9 0 9 3 -2 10 -9 6 -11 13 -5 18 14 10 12 45 -2 55 -7 4
-13 13 -13 19 0 7 4 7 13 -1 11 -8 13 -4 13 23 0 19 -4 32 -8 30 -4 -3 -5 10
-2 28 4 23 3 29 -4 19 -8 -11 -10 -8 -9 12 1 14 5 23 10 20 4 -2 7 10 7 26 0
17 -4 31 -10 31 -5 0 -7 13 -3 32 4 22 3 29 -6 24 -6 -4 -8 -12 -5 -18 4 -7 2
-8 -5 -4 -7 5 -9 16 -5 28 4 15 3 18 -6 13 -9 -6 -11 -4 -6 4 5 7 0 21 -10 32
-28 32 -7 22 35 -16 47 -43 64 -31 18 13 -18 17 -34 31 -37 30 -3 0 -22 16
-42 35 -35 33 -36 36 -19 51 10 9 20 14 23 11 3 -3 11 1 17 9 8 10 9 16 1 21
-6 4 -9 1 -8 -7 2 -7 -2 -12 -9 -11 -6 2 -25 -14 -42 -34 -23 -27 -34 -34 -48
-28 -10 5 -21 8 -24 7 -4 -1 -17 11 -30 26 l-24 27 30 -25 c28 -23 27 -22 -5
15 -19 22 -35 41 -36 42 0 2 -20 -14 -45 -34z m227 -90 c-10 -11 -19 -7 -22
10 -2 15 0 16 12 6 8 -6 12 -14 10 -16z m70 -55 l29 -33 -32 29 c-31 28 -38
36 -30 36 2 0 16 -15 33 -32z m-1296 -751 c0 -2 -15 -16 -32 -33 l-33 -29 29
33 c28 30 36 37 36 29z m1180 -259 c296 -231 517 -401 528 -405 9 -4 12 -97
12 -419 l0 -414 -357 2 -358 3 0 45 0 45 308 0 307 0 -1 340 0 340 -117 87
c-64 48 -185 140 -268 203 l-152 116 -223 -173 c-123 -96 -243 -187 -266 -203
l-43 -30 -2 -282 c-1 -156 -2 -309 -3 -340 l0 -58 33 -3 32 -3 0 70 0 71 155
0 155 0 0 -84 c0 -46 -3 -98 -6 -115 l-6 -31 -229 0 -229 0 0 403 c0 221 4
407 8 412 18 26 623 497 632 492 3 -1 43 -32 90 -69z m-1430 28 c0 -2 -8 -10
-17 -17 -16 -13 -17 -12 -4 4 13 16 21 21 21 13z m2181 -293 c13 -16 12 -17
-3 -4 -10 7 -18 15 -18 17 0 8 8 3 21 -13z m-644 -110 c3 3 36 -14 74 -39 38
-24 74 -44 79 -44 6 0 10 -4 10 -8 0 -5 11 -14 24 -20 13 -6 37 -27 52 -48
l29 -37 -3 -246 c-4 -284 -1 -276 -92 -267 -76 7 -128 24 -139 44 -15 29 -25
101 -34 254 0 15 -5 24 -9 22 -4 -3 -8 11 -8 30 0 20 -5 36 -11 36 -5 0 -8 4
-5 9 4 5 2 21 -4 36 -8 20 -7 24 3 18 7 -4 6 2 -3 17 -9 15 -17 53 -18 90 -3
77 -10 103 -24 94 -7 -4 -7 0 0 12 5 11 7 25 4 33 -3 8 0 11 7 7 6 -4 11 -2
11 3 0 6 -5 11 -11 11 -5 0 -8 4 -5 9 4 5 19 3 37 -6 17 -8 33 -13 36 -10z
m-422 -221 l55 -51 0 -80 0 -81 -155 0 -155 0 0 79 0 79 77 70 c88 81 70 82
178 -16z m-1110 -632 c27 -27 47 -50 44 -50 -3 0 -27 23 -54 50 -27 28 -47 50
-44 50 3 0 27 -22 54 -50z m155 -137 c0 -7 -75 54 -91 74 -8 10 10 -2 39 -26
28 -24 52 -46 52 -48z m40 -28 c13 -14 21 -25 18 -25 -2 0 -15 11 -28 25 -13
14 -21 25 -18 25 2 0 15 -11 28 -25z m1187 -451 c-3 -3 -12 -4 -19 -1 -8 3 -5
6 6 6 11 1 17 -2 13 -5z"/>
<path d="M3764 6858 l-29 -33 33 29 c17 17 32 31 32 33 0 8 -8 1 -36 -29z"/>
<path d="M6165 6800 c27 -27 51 -50 54 -50 3 0 -17 23 -44 50 -27 28 -51 50
-54 50 -3 0 17 -22 44 -50z"/>
<path d="M3659 6763 l-24 -28 28 24 c25 23 32 31 24 31 -2 0 -14 -12 -28 -27z"/>
<path d="M6297 6680 c40 -41 74 -72 75 -70 2 3 -30 36 -72 75 l-75 69 72 -74z"/>
<path d="M3609 6713 c-13 -16 -12 -17 4 -4 9 7 17 15 17 17 0 8 -8 3 -21 -13z"/>
<path d="M5463 6665 c0 -8 3 -13 5 -10 3 3 19 -7 36 -22 27 -25 27 -23 -3 10
-19 20 -36 37 -36 37 -1 0 -2 -7 -2 -15z"/>
<path d="M3509 6623 c-13 -16 -12 -17 4 -4 16 13 21 21 13 21 -2 0 -10 -8 -17
-17z"/>
<path d="M3111 6614 c0 -11 3 -14 6 -6 3 7 2 16 -1 19 -3 4 -6 -2 -5 -13z"/>
<path d="M6425 6560 c21 -22 41 -40 44 -40 3 0 -13 18 -34 40 -21 22 -41 40
-44 40 -3 0 13 -18 34 -40z"/>
<path d="M5570 6577 c0 -2 15 -16 33 -33 l32 -29 -29 33 c-28 30 -36 37 -36
29z"/>
<path d="M4648 6513 c7 -3 16 -2 19 1 4 3 -2 6 -13 5 -11 0 -14 -3 -6 -6z"/>
<path d="M6520 6477 c0 -2 15 -16 33 -33 l32 -29 -29 33 c-28 30 -36 37 -36
29z"/>
<path d="M3769 6403 l-34 -38 38 34 c20 19 37 36 37 38 0 8 -8 0 -41 -34z"/>
<path d="M6651 6355 c20 -22 39 -47 42 -55 5 -13 6 -13 6 0 1 9 -18 34 -41 55
l-43 40 36 -40z"/>
<path d="M3993 6303 c-15 -5 -17 -39 -4 -47 17 -11 42 6 39 27 -3 22 -15 29
-35 20z"/>
<path d="M6690 6251 c0 -11 4 -22 9 -25 4 -3 6 6 3 19 -5 30 -12 33 -12 6z"/>
<path d="M3830 6199 c0 -5 5 -7 10 -4 6 3 10 8 10 11 0 2 -4 4 -10 4 -5 0 -10
-5 -10 -11z"/>
<path d="M6884 6043 c55 -56 103 -100 108 -97 5 3 7 0 6 -7 -2 -7 4 -13 12
-14 8 0 14 -6 13 -12 -1 -5 10 -22 25 -36 l28 -27 72 73 c40 41 66 74 58 74
-8 0 -14 -5 -13 -11 1 -5 -3 -10 -10 -11 -7 0 -17 -5 -24 -12 -13 -13 -49 -1
-81 25 -10 9 -18 12 -18 8 0 -4 -7 0 -16 9 -10 10 -27 14 -45 11 -17 -2 -27 0
-23 5 3 5 9 7 13 4 5 -2 17 5 27 18 l19 22 -22 -19 c-13 -11 -23 -15 -23 -11
0 5 -11 -2 -25 -15 l-26 -24 -77 74 c-50 49 -42 39 22 -27z m87 -70 c13 -16
12 -17 -3 -4 -10 7 -18 15 -18 17 0 8 8 3 21 -13z m209 -6 c0 -1 -26 -27 -57
-57 l-58 -55 55 58 c50 53 60 62 60 54z"/>
<path d="M7120 6075 c13 -14 26 -25 28 -25 3 0 -5 11 -18 25 -13 14 -26 25
-28 25 -3 0 5 -11 18 -25z"/>
<path d="M3409 6073 c-13 -16 -12 -17 4 -4 9 7 17 15 17 17 0 8 -8 3 -21 -13z"/>
<path d="M4000 6025 c-7 -8 -8 -15 -2 -15 5 0 15 7 22 15 7 8 8 15 2 15 -5 0
-15 -7 -22 -15z"/>
<path d="M3601 5862 c-7 -13 -6 -23 1 -30 28 -28 63 3 38 33 -16 20 -27 19
-39 -3z"/>
<path d="M3040 5750 c0 -5 5 -10 11 -10 5 0 7 5 4 10 -3 6 -8 10 -11 10 -2 0
-4 -4 -4 -10z"/>
<path d="M2485 5690 l-39 -40 41 -41 41 -42 43 41 44 41 -40 40 c-21 23 -42
41 -45 41 -3 0 -24 -18 -45 -40z"/>
<path d="M3600 5685 c-10 -12 -10 -21 -2 -40 20 -43 66 -26 60 21 -4 34 -37
45 -58 19z"/>
<path d="M3657 5513 c12 -9 10 -35 -20 -233 -8 -52 -18 -138 -22 -190 -8 -118
-14 -176 -21 -217 -4 -29 6 -92 23 -133 4 -8 7 -18 7 -22 3 -19 16 -18 16 1 0
18 4 21 20 16 20 -6 20 -3 18 386 -3 339 -5 393 -18 396 -10 3 -11 2 -3 -4z"/>
<path d="M7645 5360 c10 -11 20 -20 23 -20 3 0 -3 9 -13 20 -10 11 -20 20 -23
20 -3 0 3 -9 13 -20z"/>
<path d="M7493 5334 c-9 -15 -35 -40 -57 -55 -21 -16 -34 -29 -28 -29 15 0 90
67 103 92 15 28 2 22 -18 -8z"/>
<path d="M7680 5326 c0 -2 8 -10 18 -17 15 -13 16 -12 3 4 -13 16 -21 21 -21
13z"/>
<path d="M7104 5228 l-19 -23 23 19 c21 18 27 26 19 26 -2 0 -12 -10 -23 -22z"/>
<path d="M7436 5242 c-3 -5 10 -23 28 -41 19 -18 36 -28 40 -23 3 5 -1 15 -9
22 -8 7 -15 9 -15 5 0 -5 -9 0 -20 10 -11 10 -17 22 -14 26 3 5 3 9 0 9 -3 0
-7 -4 -10 -8z"/>
<path d="M7700 5205 c-7 -8 -17 -12 -24 -8 -6 3 -8 2 -3 -2 4 -5 -1 -18 -10
-29 -10 -12 -1 -5 20 13 20 19 37 36 37 38 0 7 -8 2 -20 -12z"/>
<path d="M2992 5187 l-22 -24 21 -26 c26 -34 39 -34 73 2 l27 28 -27 22 c-34
27 -45 26 -72 -2z"/>
<path d="M6989 5123 l-34 -38 38 34 c20 19 37 36 37 38 0 8 -8 0 -41 -34z"/>
<path d="M7542 5125 c37 -39 38 -39 55 -20 17 18 17 18 0 5 -16 -12 -22 -9
-55 21 l-37 34 37 -40z"/>
<path d="M3290 5016 c0 -31 14 -40 40 -26 29 16 21 44 -13 48 -23 3 -27 0 -27
-22z"/>
<path d="M6795 4943 c-69 -65 -78 -77 -30 -35 68 59 143 132 134 132 -2 -1
-49 -44 -104 -97z"/>
<path d="M3374 4753 c17 -18 24 -33 18 -33 -7 0 3 -14 23 -31 20 -18 33 -34
30 -37 -2 -3 0 -11 6 -19 7 -8 8 -18 2 -25 -10 -13 -29 -74 -37 -118 -2 -14
-14 -59 -26 -100 -23 -80 -25 -85 -45 -200 -7 -41 -19 -93 -25 -115 -6 -22
-20 -78 -31 -125 -26 -115 -26 -116 -59 -152 -16 -18 -28 -34 -26 -36 3 -2 -3
-12 -12 -22 -11 -14 -20 -16 -33 -10 -12 7 -19 5 -23 -6 -3 -8 -2 -12 4 -9 5
3 24 -9 42 -26 18 -17 24 -26 13 -18 -11 7 9 -17 44 -54 36 -36 68 -64 73 -61
5 3 7 1 6 -3 -2 -5 83 -90 187 -189 263 -247 582 -544 620 -576 l31 -26 100
91 c87 79 402 372 566 526 45 42 56 49 53 31 -4 -22 -3 -22 83 -16 134 9 146
11 162 21 12 8 7 11 -20 16 l-35 6 43 2 c27 0 41 -3 37 -9 -3 -5 -1 -10 4 -10
6 0 10 -6 9 -12 -2 -8 10 -14 32 -15 29 -2 32 -1 15 7 -17 9 -16 10 8 7 15 -3
27 -1 28 2 0 3 2 14 4 24 3 16 -10 17 -170 17 l-173 0 -59 58 c-130 126 -508
479 -552 514 l-46 38 -29 -31 -28 -30 -102 98 c-196 190 -635 595 -623 576 5
-7 4 -13 -1 -13 -12 0 -33 25 -27 32 2 2 -17 24 -43 49 -26 24 -34 29 -18 12z
m47 -50 c13 -16 12 -17 -3 -4 -17 13 -22 21 -14 21 2 0 10 -8 17 -17z m85 -75
l29 -33 -32 29 c-31 28 -38 36 -30 36 2 0 16 -15 33 -32z m-246 -1013 c19 -19
32 -35 29 -35 -3 0 -20 16 -39 35 -19 19 -32 35 -29 35 3 0 20 -16 39 -35z"/>
<path d="M6579 4423 c-13 -16 -12 -17 4 -4 16 13 21 21 13 21 -2 0 -10 -8 -17
-17z"/>
<path d="M6509 4353 l-24 -28 28 24 c15 14 27 26 27 28 0 8 -8 1 -31 -24z"/>
<path d="M6319 4173 l-34 -38 38 34 c34 33 42 41 34 41 -2 0 -19 -17 -38 -37z"/>
<path d="M6010 4070 c-58 -53 -62 -59 -32 -49 29 10 102 81 102 101 0 12 0 12
-70 -52z"/>
<path d="M6164 4028 l-29 -33 33 29 c17 17 32 31 32 33 0 8 -8 1 -36 -29z"/>
<path d="M6004 3973 c1 -7 -41 -55 -91 -106 -51 -52 -93 -91 -93 -89 0 3 -11
-5 -25 -18 -29 -27 -22 -50 7 -23 11 10 23 18 27 17 3 -1 20 3 36 9 17 6 30 9
30 7 0 -3 23 11 50 30 57 39 130 113 151 152 l14 26 -54 4 c-38 2 -53 -1 -52
-9z m-178 -215 c4 -7 3 -10 -1 -5 -5 4 -18 -1 -29 -10 -21 -18 -21 -18 -2 5
22 26 23 26 32 10z"/>
<path d="M3080 3765 c19 -19 36 -35 39 -35 3 0 -10 16 -29 35 -19 19 -36 35
-39 35 -3 0 10 -16 29 -35z"/>
<path d="M4849 3393 c-13 -16 -12 -17 4 -4 9 7 17 15 17 17 0 8 -8 3 -21 -13z"/>
<path d="M5243 3383 c9 -2 23 -2 30 0 6 3 -1 5 -18 5 -16 0 -22 -2 -12 -5z"/>
</g>
</svg>
